<?xml version="1.0" encoding="utf-8"?>
<!-- Generator: Adobe Illustrator 23.0.5, SVG Export Plug-In . SVG Version: 6.00 Build 0)  -->
<svg version="1.1" id="Calque_1" xmlns="http://www.w3.org/2000/svg" xmlns:xlink="http://www.w3.org/1999/xlink" x="0px" y="0px"
	 viewBox="0 0 1024 1024" style="enable-background:new 0 0 1024 1024;" xml:space="preserve">
<style type="text/css">
	.st0{fill:#369A37;}
	.st1{fill:#E62B3F;}
	.st2{fill:#FFFFFF;}
</style>
<path class="st0" d="M570.28,734.2l-11.63-20.17l-11.7-20.24l-11.65-20.19l-11.7-20.24l-11.63-20.17l-23.29-40.37l-11.7-20.22
	h-69.95l11.63-20.19l11.7-20.24L442.02,512l-11.65-20.17l-11.7-20.24l-11.63-20.19h-69.96l-11.7,20.19l-11.65,20.24L302.05,512
	l-23.29,40.37l-11.7,20.24l-11.65,20.17l11.7,20.24l11.65,20.19l11.65-20.19l11.68-20.24l11.65-20.17l11.65-20.19l11.7-20.24
	L348.73,512l11.63-20.17l11.7-20.24l11.65,20.24L395.35,512l-23.29,40.37l-11.7,20.24l-11.63,20.17l-11.7,20.24l-11.65,20.19
	l-23.29,40.35l11.65,20.24l11.7,20.19l11.65,20.22h-46.62l-11.7-20.22l-11.65-20.19l-11.7-20.19l-11.63-20.24l-11.7-20.17v-0.05
	l-11.65-20.13l-11.65-20.24l11.65-20.17l11.7-20.24l11.65-20.19L255.42,512l11.65-20.17l11.7-20.19l11.65-20.24h-46.62l-11.7,20.19
	l-11.65,20.24L208.8,512l-11.68,20.19l-11.65,20.19l-11.7,20.24l-11.65,20.17l11.7,20.24l11.65,20.19l11.65,20.17l11.68,20.24
	l23.29,40.37l11.7,20.22l11.63,20.19l11.7,20.24h93.29l11.65,20.17l11.7,20.19l11.65,20.19l11.68,20.22h209.88l11.65-20.17
	l11.7-20.24l11.65-20.19l11.65-20.17l11.68-20.24l11.65-20.19H570.28z M605.27,794.79l-11.65,20.19H430.37l-11.7-20.19v-0.05
	l-11.63-20.11l-11.65-20.24l-11.65-20.19l-11.7-20.17l-11.65-20.24l-11.68-20.19l11.68-20.24l11.65-20.17l11.65,20.17l11.7,20.24
	l11.65,20.19l11.63,20.24l11.7,20.17l11.65,20.19l11.7,20.24h46.62l-11.65-20.24l-11.7-20.19l-11.65-20.22l-11.63-20.19l-11.7-20.19
	l-11.65-20.24l-11.65-20.11v-0.05l-11.68-20.19h46.62l11.68,20.24l11.65,20.11l11.7,20.24l11.65,20.19l11.65,20.24l11.68,20.17
	l11.65,20.19l11.7,20.24h69.91L605.27,794.79z"/>
<polygon class="st1" points="850.18,572.61 861.88,592.83 850.23,613.01 838.53,633.25 826.89,653.37 815.2,673.61 803.56,693.79 
	791.91,714.03 780.21,734.2 768.58,754.38 756.89,774.62 663.59,774.62 675.27,754.38 686.92,734.2 733.54,734.2 745.24,713.98 
	768.53,673.61 780.21,653.37 791.86,633.2 803.5,613.01 815.2,592.78 803.56,572.61 791.86,552.42 780.21,572.61 768.58,592.78 
	768.58,592.83 756.89,613.01 570.28,613.01 558.65,633.2 547.01,653.37 733.59,653.37 721.91,673.61 710.27,693.79 546.96,693.79 
	535.31,673.61 523.61,653.37 511.98,633.2 523.66,613.01 535.31,592.78 547.01,572.61 616.96,572.61 605.33,552.42 593.63,532.19 
	581.98,512 593.63,491.83 605.33,471.59 616.96,451.41 628.6,431.24 640.3,411 651.95,390.82 663.65,370.6 675.27,350.41 
	698.57,310.04 710.27,330.23 721.91,350.41 710.27,370.6 698.57,390.82 698.57,390.87 686.92,411 675.27,431.24 663.65,451.41 
	651.95,471.65 640.3,491.83 628.6,512 640.3,532.19 651.95,552.37 663.59,532.19 675.27,512 686.92,491.83 698.57,471.59 
	710.27,451.41 721.91,431.24 733.59,411 745.24,390.82 768.53,431.19 768.53,431.24 756.89,451.41 745.24,471.59 733.54,491.83 
	721.91,512 710.27,532.19 698.57,552.37 686.92,572.61 733.54,572.61 745.24,552.42 756.89,532.19 768.58,512 780.21,491.83 
	791.86,471.59 803.56,451.41 815.2,431.19 803.56,411 791.86,390.76 780.21,370.6 768.58,350.41 756.94,330.23 745.24,309.99 
	733.59,289.82 686.92,289.82 675.27,269.64 663.59,249.4 756.89,249.4 768.58,269.64 780.21,289.82 791.91,309.99 803.56,330.23 
	815.2,350.36 826.89,370.6 838.53,390.76 850.23,411 861.88,431.19 850.18,451.41 838.53,471.59 826.85,491.83 815.2,512 
	826.85,532.19 838.53,552.37 "/>
<polygon class="st2" points="698.57,309.99 698.57,310.04 675.27,350.41 663.59,330.23 651.95,310.04 640.25,289.82 628.6,269.64 
	616.92,249.4 605.27,229.23 593.58,208.99 430.37,208.99 418.67,229.23 407.04,249.4 476.99,249.4 488.69,269.58 500.34,289.82 
	511.98,309.99 523.66,330.23 546.96,370.6 558.65,390.82 570.28,411 616.96,411 605.33,390.82 593.63,370.6 581.98,350.41 
	570.28,330.23 558.65,309.99 546.96,289.82 535.31,269.64 523.61,249.4 570.28,249.4 581.98,269.64 593.63,289.82 605.27,310.04 
	616.96,330.23 628.6,350.47 640.25,370.6 651.95,390.82 640.3,411 628.6,431.24 616.96,451.41 547.01,451.41 535.31,431.24 
	523.66,411 511.98,390.82 488.69,431.19 476.99,451.41 243.79,451.41 255.42,431.24 267.12,411 453.66,411 465.35,390.76 
	476.99,370.6 290.46,370.6 302.05,350.41 313.73,330.23 476.99,330.23 465.35,309.99 453.66,289.82 290.46,289.82 278.76,310.04 
	267.12,330.23 255.42,350.41 243.79,370.6 232.09,390.82 220.44,411 208.8,431.24 220.44,451.41 232.09,471.59 220.44,491.83 
	208.8,512 197.15,491.83 185.47,471.59 173.82,451.41 162.12,431.19 173.82,411 185.47,390.82 197.15,370.6 208.8,350.47 
	208.8,350.41 220.44,330.23 232.09,309.99 243.79,289.82 255.42,269.64 267.12,249.4 360.41,249.4 372.05,229.23 383.75,208.99 
	395.4,188.81 407.04,168.62 616.96,168.62 628.6,188.81 640.25,208.99 651.95,229.23 663.59,249.4 675.27,269.64 686.92,289.82 "/>
</svg>
